HIERARCHY
ROOT hip
{
  OFFSET 0 0 0
  CHANNELS 6 Xposition Yposition Zposition Zrotation Yrotation Xrotation
  JOINT abdomen
  {
    OFFSET 0 20.6881 -0.73152
    CHANNELS 3 Zrotation Xrotation Yrotation
    JOINT chest
    {
      OFFSET 0 11.7043 -0.48768
      CHANNELS 3 Zrotation Xrotation Yrotation
      JOINT neck
      {
        OFFSET 0 22.1894 -2.19456
        CHANNELS 3 Zrotation Xrotation Yrotation
        JOINT head
        {
          OFFSET -0.24384 7.07133 1.2192
          CHANNELS 3 Zrotation Xrotation Yrotation
          JOINT leftEye
          {
            OFFSET 4.14528 8.04674 8.04672
            CHANNELS 3 Zrotation Xrotation Yrotation
            End Site
            {
              OFFSET 1 0 0
            }
          }
          JOINT rightEye
          {
            OFFSET -3.6576 8.04674 8.04672
            CHANNELS 3 Zrotation Xrotation Yrotation
            End Site
            {
              OFFSET 1 0 0
            }
          }
        }
      }
      JOINT rCollar
      {
        OFFSET -2.68224 19.2634 -4.8768
        CHANNELS 3 Zrotation Xrotation Yrotation
        JOINT rShldr
        {
          OFFSET -8.77824 -1.95073 1.46304
          CHANNELS 3 Zrotation Xrotation Yrotation
          JOINT rForeArm
          {
            OFFSET -28.1742 -1.7115 0.48768
            CHANNELS 3 Zrotation Xrotation Yrotation
            JOINT rHand
            {
              OFFSET -22.5879 0.773209 7.07136
              CHANNELS 3 Zrotation Xrotation Yrotation
              JOINT rThumb1
              {
                OFFSET -1.2192 -0.487915 3.41376
                CHANNELS 3 Zrotation Xrotation Yrotation
                JOINT rThumb2
                {
                  OFFSET -3.37035 -0.52449 3.41376
                  CHANNELS 3 Zrotation Xrotation Yrotation
                  End Site
                  {
                    OFFSET -1.78271 -1.18214 1.43049
                  }
                }
              }
              JOINT rIndex1
              {
                OFFSET -7.75947 0.938293 5.60832
                CHANNELS 3 Zrotation Xrotation Yrotation
                JOINT rIndex2
                {
                  OFFSET -2.54057 -0.884171 1.56538
                  CHANNELS 3 Zrotation Xrotation Yrotation
                  End Site
                  {
                    OFFSET -1.62519 -0.234802 1.16502
                  }
                }
              }
              JOINT rMid1
              {
                OFFSET -8.24714 1.18213 3.41376
                CHANNELS 3 Zrotation Xrotation Yrotation
                JOINT rMid2
                {
                  OFFSET -3.10165 -0.590103 1.0647
                  CHANNELS 3 Zrotation Xrotation Yrotation
                  End Site
                  {
                    OFFSET -2.48547 -0.328903 0.83742
                  }
                }
              }
              JOINT rRing1
              {
                OFFSET -8.82822 0.546677 1.51678
                CHANNELS 3 Zrotation Xrotation Yrotation
                JOINT rRing2
                {
                  OFFSET -2.60934 -0.819778 -0.0198488
                  CHANNELS 3 Zrotation Xrotation Yrotation
                  End Site
                  {
                    OFFSET -2.33842 -0.294052 0.168128
                  }
                }
              }
              JOINT rPinky1
              {
                OFFSET -8.27202 -0.0477905 -0.4584
                CHANNELS 3 Zrotation Xrotation Yrotation
                JOINT rPinky2
                {
                  OFFSET -1.82734 -0.647385 -0.700984
                  CHANNELS 3 Zrotation Xrotation Yrotation
                  End Site
                  {
                    OFFSET -1.69225 -0.51767 -0.607171
                  }
                }
              }
            }
          }
        }
      }
      JOINT lCollar
      {
        OFFSET 2.68224 19.2634 -4.8768
        CHANNELS 3 Zrotation Xrotation Yrotation
        JOINT lShldr
        {
          OFFSET 8.77824 -1.95073 1.46304
          CHANNELS 3 Zrotation Xrotation Yrotation
          JOINT lForeArm
          {
            OFFSET 28.1742 -1.7115 0.48768
            CHANNELS 3 Zrotation Xrotation Yrotation
            JOINT lHand
            {
              OFFSET 22.5879 0.773209 7.07136
              CHANNELS 3 Zrotation Xrotation Yrotation
              JOINT lThumb1
              {
                OFFSET 1.2192 -0.487915 3.41376
                CHANNELS 3 Zrotation Xrotation Yrotation
                JOINT lThumb2
                {
                  OFFSET 3.37035 -0.52449 3.41376
                  CHANNELS 3 Zrotation Xrotation Yrotation
                  End Site
                  {
                    OFFSET 1.78271 -1.18214 1.43049
                  }
                }
              }
              JOINT lIndex1
              {
                OFFSET 7.75947 0.938293 5.60832
                CHANNELS 3 Zrotation Xrotation Yrotation
                JOINT lIndex2
                {
                  OFFSET 2.54057 -0.884171 1.56538
                  CHANNELS 3 Zrotation Xrotation Yrotation
                  End Site
                  {
                    OFFSET 1.62519 -0.234802 1.16502
                  }
                }
              }
              JOINT lMid1
              {
                OFFSET 8.24714 1.18213 3.41376
                CHANNELS 3 Zrotation Xrotation Yrotation
                JOINT lMid2
                {
                  OFFSET 3.10165 -0.590103 1.0647
                  CHANNELS 3 Zrotation Xrotation Yrotation
                  End Site
                  {
                    OFFSET 2.48547 -0.328903 0.83742
                  }
                }
              }
              JOINT lRing1
              {
                OFFSET 8.82822 0.546677 1.51678
                CHANNELS 3 Zrotation Xrotation Yrotation
                JOINT lRing2
                {
                  OFFSET 2.60934 -0.819778 -0.0198488
                  CHANNELS 3 Zrotation Xrotation Yrotation
                  End Site
                  {
                    OFFSET 2.33842 -0.294052 0.168128
                  }
                }
              }
              JOINT lPinky1
              {
                OFFSET 8.27202 -0.0477905 -0.4584
                CHANNELS 3 Zrotation Xrotation Yrotation
                JOINT lPinky2
                {
                  OFFSET 1.82734 -0.647385 -0.700984
                  CHANNELS 3 Zrotation Xrotation Yrotation
                  End Site
                  {
                    OFFSET 1.69225 -0.51767 -0.607171
                  }
                }
              }
            }
          }
        }
      }
    }
  }
  JOINT rButtock
  {
    OFFSET -8.77824 4.35084 1.2192
    CHANNELS 3 Zrotation Xrotation Yrotation
    JOINT rThigh
    {
      OFFSET 0 -1.70687 -2.19456
      CHANNELS 3 Zrotation Xrotation Yrotation
      JOINT rShin
      {
        OFFSET 0 -36.8199 0.73152
        CHANNELS 3 Zrotation Xrotation Yrotation
        JOINT rFoot
        {
          OFFSET 0.73152 -45.1104 -5.12064
          CHANNELS 3 Zrotation Xrotation Yrotation
          End Site
          {
            OFFSET -1.1221 -3.69964 12.103
          }
        }
      }
    }
  }
  JOINT lButtock
  {
    OFFSET 8.77824 4.35084 1.2192
    CHANNELS 3 Zrotation Xrotation Yrotation
    JOINT lThigh
    {
      OFFSET 0 -1.70687 -2.19456
      CHANNELS 3 Zrotation Xrotation Yrotation
      JOINT lShin
      {
        OFFSET 0 -36.8199 0.73152
        CHANNELS 3 Zrotation Xrotation Yrotation
        JOINT lFoot
        {
          OFFSET -0.73152 -45.1104 -5.12064
          CHANNELS 3 Zrotation Xrotation Yrotation
          End Site
          {
            OFFSET 1.1221 -3.69964 12.103
          }
        }
      }
    }
  }
}
MOTION
Frames:	8
Frame Time:	0.03333
-15.4199 65.86619999999999 70.9037 151.172484 -49.699236 -143.793435 -9.560629 27.241307 4.052181 -5.437629 -7.950397 9.366583 -11.589662 19.333632 -76.255339 27.00476 -0.509576 117.56569 -0.674153 0.105925 -17.858779 -1.94932 0.222533 -13.024064 6.938644 -44.980387 -1.644577 -178.987838 77.509614 -135.8338 174.53763 37.661765 48.034165 169.066753 -19.092475 146.784698 178.558758 -19.00657 91.073101 -40.172417 -32.80035 -10.349335 -14.039011 29.222112 1.27497 -87.881474 37.111979 49.412805 -158.530469 -22.220028 156.563704 -149.369033 0.021674 160.458523 -139.103764 -40.148566 -155.849796 -151.147406 1.900504 -176.644645 -17.404011 -24.058213 -14.243958 -77.091663 -54.065781 -81.583921 5.080123 36.13071 -5.054621 167.772379 -68.768207 -118.419335 18.03659 52.428514 -111.391202 8.466756 -1.483149 1.45256 -99.998036 -47.837751 -42.595156 143.81374 15.736903 -95.250836 -1.857532 1.250607 0.657857 -8.154569 -11.533726 -1.469303 161.751813 -3.660627 -146.684581 8.783362 0.720481 6.490291 -6.645867 -26.543278 -4.716247 156.930622 -31.614126 172.248701 11.001587 -51.175077 16.851496 96.632461 -44.47322 66.965095 -7.784549 -0.050492 -1.938992 -43.861198 -52.666601 -37.911494 -17.517082 68.857074 -44.964203 94.840446 40.214307 5.090136 119.021844 74.628384 41.225995 -128.729526 8.281455 -83.410602 -93.571917 29.254115 -111.372388 90.934679 32.253391 172.247008
-16.7344 62.756 71.89229999999999 155.555895 -47.705772 -149.178552 -7.097955 22.403097 -139.963174 8.999458 -1.75208 154.439081 -2.20593 30.021935 -155.114056 20.94997 32.242015 -169.260168 3.686237 -0.703357 -21.598074 -3.624956 0.299898 -9.455657 -82.228667 63.36286 84.282281 -86.705184 39.606574 91.907824 -158.573025 -9.449936 -73.639132 -2.936841 12.0553 2.980523 -170.977711 -6.097025 89.716332 -38.593442 -28.947092 4.653301 179.128919 -84.352486 127.454561 -37.927156 55.075261 52.135596 -156.595759 -2.489779 152.821977 -118.411108 -77.675932 -155.058657 -101.532006 72.399216 113.778618 -158.215758 -26.753072 178.687877 -161.274069 57.759704 -145.784278 -145.357793 -4.072924 -132.037343 78.539218 72.805995 -82.437137 -17.121813 8.60424 -62.97129 118.458339 -16.715905 43.103832 -8.192312 -50.643827 -0.254074 91.350484 35.068233 -54.783322 -42.860001 -36.572867 -15.29956 -6.234053 -2.384354 5.562512 93.452792 32.704318 -63.75949 18.43332 35.324624 -12.6647 -7.169837 2.385588 -7.491054 -9.319632 -26.702321 -5.456331 95.999846 85.001531 -96.606199 -2.648001 -34.871607 0.524195 117.227008 -32.978047 80.796806 -174.652849 74.933832 -5.536333 149.475878 5.131137 -98.625184 -74.538896 -24.573424 38.450819 5.243479 -29.656811 60.79877 117.676203 76.932692 44.390292 -131.732714 20.283056 0.0 71.966333 56.967343 -2.375039 -116.202286 52.71675 24.280132
-17.523600000000002 59.5391 72.8293 158.779173 -45.694503 -153.014737 -6.264338 24.367484 -67.438272 3.865631 -12.241645 83.675373 12.761845 22.811265 105.315933 -26.654817 23.122994 -58.753645 3.714705 -0.758584 -23.075942 -6.051098 0.41151 -7.773745 -80.426438 64.732473 83.88001 58.854987 -38.140704 61.281943 -3.148628 -10.691334 104.163 -6.294681 26.002719 2.984872 88.892006 -49.111536 41.052115 -115.678206 37.056187 74.018186 -112.198234 41.904171 97.029232 -8.345628 16.141051 -18.915741 8.656961 -44.65102 -13.418544 -0.154688 12.402733 20.763826 -8.805063 -2.327902 2.053847 13.749058 6.955637 -5.224534 -1.994155 -9.786546 -4.606198 -146.33964 74.921974 -172.254791 0.166526 1.241583 2.1591 105.899016 -30.372196 173.895894 151.358923 51.327043 99.762999 7.390302 -10.302693 2.39547 -100.627111 -50.752387 -42.514975 27.005068 -30.166354 19.677054 8.626151 21.944999 -2.687355 166.026149 -0.026633 -89.559533 -9.552426 -17.793099 -1.944796 3.62628 27.265016 -1.180034 -8.463234 -45.079854 3.354201 157.801142 42.185252 -158.553726 79.00072 78.080636 -130.17776 -38.982214 -5.245813 5.729836 1.769913 0.028454 -0.0 -64.089689 -55.764811 -60.229035 -33.630393 74.557552 66.332237 -156.935189 -0.887063 36.094369 170.983516 81.008587 -0.0 -144.848534 28.850411 -94.312194 -79.340708 9.299696 -1.595334 116.146285 70.540504 -32.982935
-17.9008 56.29110000000001 73.7057 160.441615 -45.066794 -155.163836 -6.903604 24.026201 -66.414611 5.04622 -12.885367 84.287241 10.373357 16.311552 55.964919 -26.776554 -3.980342 -14.423979 -3.626631 0.868641 -26.930983 -7.286044 0.430077 -6.747163 -150.653723 13.282398 155.70871 179.754301 43.981873 146.812055 -14.24618 81.25443 122.352413 -7.542235 33.429481 2.729094 14.606719 -18.644439 3.801946 -6.541418 -0.233709 -13.402478 -43.411355 41.084277 30.990776 -167.944452 -4.913585 115.234266 82.716595 -85.997868 54.494643 -152.208787 -10.133627 137.298604 -9.291286 -26.018489 -3.050558 -149.93236 -14.008388 -176.742389 -142.371619 11.742426 -143.474102 -169.067198 56.200318 -138.862846 84.426475 68.395957 -86.723875 -62.482155 -17.867521 -67.256369 21.89518 -61.936407 -82.275141 7.600192 -11.408244 2.591576 166.368252 -8.124816 -92.205622 33.902679 -24.328339 -13.029803 146.872425 -9.899639 -127.143776 3.205897 -69.584798 46.124609 144.623174 14.419993 -132.54825 2.093154 18.701475 -10.142883 62.74436 -78.273534 83.989839 141.336887 32.522636 -154.56834 -6.577782 -11.246719 -7.595911 -50.611908 59.086432 47.848812 12.165624 -0.402806 5.994712 -82.421087 -51.877295 -84.024482 -88.305171 68.843283 -172.977894 -31.2739 -13.631014 -100.412457 -87.442747 45.385528 -56.128896 141.523677 26.850145 -119.609332 -74.120851 -58.490784 8.713988 75.18811 -61.778437 155.105068
-18.0762 53.30160000000001 74.5055 161.234399 -45.703812 -156.357968 -10.543953 25.462183 4.175208 -7.428747 -11.937208 13.426082 -8.430768 27.534908 -96.157603 34.739198 12.311899 137.677652 -12.282218 3.385305 -30.715224 -7.026188 0.359371 -5.848638 -141.362489 38.412792 146.357767 -99.391329 48.065465 80.990167 83.667291 -39.822154 -87.817423 -179.118189 28.689454 148.190472 -96.371074 33.917893 50.485608 -135.554372 -29.473215 82.504113 18.756957 -35.317432 -1.715104 -93.476747 54.792376 70.565112 -36.357554 53.193317 25.596696 -164.416996 21.541118 137.421186 -68.971327 -78.566999 -77.481043 -156.950051 1.877451 -177.226069 -135.057359 -12.774205 -134.821723 -149.054663 9.929344 -134.584272 150.687238 21.300154 -153.999023 111.266943 51.476206 -70.927093 -74.079749 -87.477355 70.474955 173.978321 -1.836411 -144.123329 -62.320638 -48.627325 -15.632312 132.427069 16.881193 -96.581536 91.74219 48.566563 -77.516131 -41.903487 -58.719538 -26.687123 144.635546 14.806256 -133.423702 161.592907 -8.016303 -137.130191 -1.931133 -2.084024 -1.980462 6.933824 28.441384 -11.285704 139.261801 24.863843 155.747 -18.454505 -44.640706 -2.935031 162.367664 75.526487 18.172824 153.017169 -5.689436 -3.465552 -108.460082 68.688309 3.505209 175.641006 1.854539 -94.547454 0.14624 -2.457274 3.406879 22.562269 -39.983304 114.251085 83.272798 -14.292453 -5.018965 -10.303852 -65.460326 -91.897886
-18.2312 50.938700000000004 75.2265 162.058515 -46.380746 -157.381521 -11.366085 25.395346 -0.0 -5.505931 -13.111839 17.331849 9.330145 18.888541 65.812664 -27.915745 -2.882066 -22.272244 -16.760995 4.42524 -29.391409 -6.411357 0.324825 -5.794681 -155.019467 -6.045879 161.019224 -160.173526 72.251227 128.06511 -142.315903 88.559344 -110.630096 -7.693052 37.505521 1.778861 -83.677976 33.287179 43.175499 83.596707 -54.433182 20.848341 91.847825 -66.339886 48.219343 -176.563974 -10.715189 117.560523 -18.539106 33.167487 8.196238 -9.595568 8.905801 7.320444 -150.523241 -1.079555 173.197974 -89.967977 -82.201506 -104.555086 -25.332683 -38.352554 -24.065212 -143.607512 38.760409 -147.865603 43.917138 -88.054757 65.0088 172.647722 4.565222 135.010246 -56.277663 4.775071 -169.556699 114.015603 63.575674 -92.573764 -21.439714 -20.040041 4.240267 156.798965 -45.45863 -122.653575 -4.446521 -9.572828 12.028588 166.570302 -28.495302 -88.047792 143.633347 19.952482 -132.860008 87.475523 55.599317 -79.611607 0.201108 2.668223 -0.53609 14.727022 41.768319 -23.44218 15.253526 -42.788125 16.084167 148.08645 -35.232667 119.156892 -164.283918 75.544426 -7.98645 143.378892 -14.00519 108.036066 105.19858 -4.171712 84.674748 51.690047 31.357558 175.604546 -0.000586 -1.610687 -0.020854 29.644993 -39.633628 -66.433041 -91.281564 1.341796 -114.753131 116.875413 48.161145 143.3935
-18.4745 49.2795 75.819 163.081261 -47.227696 -158.669356 -12.145621 25.13997 4.760824 -5.33207 -12.83777 12.232606 -6.023756 33.370991 -141.950373 22.642266 35.880554 -177.347082 -17.874284 3.570935 -22.423877 -5.289704 0.345611 -7.471111 0.726505 1.490767 2.284577 52.319189 -2.62526 0.814065 -170.61933 -24.768287 44.022586 156.440318 -37.245186 137.592981 -102.250573 31.099774 56.323329 23.194196 -20.573544 18.138856 7.238873 -17.366481 8.990225 -12.41729 56.42737 -4.821783 78.577735 -83.328333 53.473027 22.698 -30.470472 1.410923 -1.900536 -27.542403 -1.291212 19.251113 27.867741 -1.424471 -158.796701 53.955216 -147.781025 4.769654 45.750582 5.598796 10.560535 34.491632 -12.586926 -107.381722 -47.880283 -51.098903 165.147939 -36.146314 -43.051997 178.893024 -12.825374 -144.863632 83.857349 42.313888 -49.429068 88.518806 8.247773 -67.3633 18.622782 34.783971 -8.07238 -19.155605 -21.438885 -18.411523 -4.835987 -3.330503 -1.670947 -51.886904 -85.290426 -16.389365 1.05751 0.03495 2.66736 -10.461954 -13.06049 -14.721964 -12.51676 51.308935 -21.805924 114.131974 -15.299302 108.281795 128.23669 67.687676 39.518084 162.875868 -8.282019 -87.28485 -102.521596 9.749644 -158.375972 114.779843 83.912679 150.337652 169.878824 76.310523 10.410717 -151.31579 27.847233 -49.510533 -77.155935 44.859428 43.302886 78.89116 32.204029 10.224577
-18.7648 48.1089 76.20139999999999 164.59283 -48.350473 -160.21763 -10.757893 20.264903 -151.252737 8.434193 5.229897 167.843415 7.318557 28.683758 125.263299 -27.033062 25.961925 -73.183826 -15.215284 2.346725 -17.436637 -2.84251 0.253179 -10.177628 8.158331 -45.027468 -4.718239 66.656732 48.166865 -38.93636 88.633816 33.271838 70.807235 -162.353552 58.718322 139.326216 -14.605251 9.771055 8.278466 -109.580745 10.601965 99.575747 -169.05739 -27.284347 108.769509 4.243714 -6.155874 7.738187 0.557201 -10.945637 -2.453599 11.372425 -26.335494 2.905523 -143.597761 24.641425 166.709429 -4.047618 29.921676 -1.738446 4.876773 15.252761 1.656223 -8.318669 -42.66503 -8.273222 -4.834559 -44.724553 8.261243 -44.394405 -10.808254 29.59486 152.322088 -48.276666 -54.400008 -178.366122 -21.470314 -144.873605 -83.963363 -52.544461 -31.219007 49.336416 10.986284 -12.412781 -3.211416 -1.275433 11.426826 160.364079 -15.858994 -90.981286 165.819212 -28.542429 -143.929371 175.525629 -2.179113 -140.209803 1.125291 27.467231 -4.494358 86.430811 63.946065 -87.939658 127.680079 -15.955234 136.836267 -2.56975 -46.727829 -2.982238 -143.026303 72.053752 -23.605652 137.951198 -20.967362 -106.71833 -98.451752 -32.397249 110.413895 -32.208109 -5.721639 -19.415192 152.517435 74.383061 24.054094 -146.141738 22.208122 75.024154 90.72417 -2.139212 -7.578573 -26.560726 -9.740386 -71.179531
